<?xml version="1.0" encoding="utf-8"?>
<!-- Generator: Adobe Illustrator 19.1.0, SVG Export Plug-In . SVG Version: 6.00 Build 0)  -->
<svg version="1.1" id="Слой_1" xmlns="http://www.w3.org/2000/svg" xmlns:xlink="http://www.w3.org/1999/xlink" x="0px" y="0px"
	 viewBox="-255 347 100 100" style="enable-background:new -255 347 100 100;" xml:space="preserve">
<style type="text/css">
	.st0{fill:#33414A;}
</style>
<g>
	<g>
		<g>
			<path class="st0" d="M-192.8,415.1h-14.1c-0.4,0-0.7-0.3-0.7-0.7s0.3-0.7,0.7-0.7h14.2c0.4,0,0.7,0.3,0.7,0.7
				S-192.4,415.1-192.8,415.1z"/>
		</g>
		<g>
			<g>
				<path class="st0" d="M-188.2,419.4h-40c-0.4,0-0.7-0.3-0.7-0.7v-34.3c0-0.4,0.3-0.7,0.7-0.7h26.6c0.4,0,0.7,0.3,0.7,0.7
					s-0.3,0.7-0.7,0.7h-25.9V418h38.6v-18.2c0-0.4,0.3-0.7,0.7-0.7c0.4,0,0.7,0.3,0.7,0.7v18.9
					C-187.5,419.1-187.8,419.4-188.2,419.4z"/>
			</g>
			<g>
				<path class="st0" d="M-228.2,385.1c-0.2,0-0.4-0.1-0.6-0.3c-0.2-0.3-0.1-0.8,0.2-1l8.5-5.8c0.1-0.1,0.3-0.1,0.4-0.1h21.3
					c0.4,0,0.7,0.3,0.7,0.7s-0.3,0.7-0.7,0.7h-21.1l-8.3,5.7C-228,385-228.1,385.1-228.2,385.1z"/>
			</g>
			<g>
				<path class="st0" d="M-205.2,390.6h-6c-0.4,0-0.7-0.3-0.7-0.7v-5.5c0-0.4,0.3-0.7,0.7-0.7h6c0.4,0,0.7,0.3,0.7,0.7v5.5
					C-204.5,390.3-204.8,390.6-205.2,390.6z M-210.5,389.2h4.6v-4.1h-4.6V389.2z"/>
			</g>
			<g>
				<path class="st0" d="M-205.2,385.1L-205.2,385.1h-6c-0.2,0-0.4-0.1-0.6-0.3c-0.1-0.2-0.2-0.4-0.1-0.6l1.7-5.8
					c0.1-0.3,0.4-0.5,0.7-0.5h2.9c0.3,0,0.6,0.2,0.7,0.5l1.4,5.7c0,0.1,0.1,0.2,0.1,0.3C-204.5,384.8-204.8,385.1-205.2,385.1z
					 M-210.3,383.7h4.2l-1.1-4.4h-1.8L-210.3,383.7z"/>
			</g>
			<g>
				<g>
					<path class="st0" d="M-195.2,412.1c-0.4,0-0.7-0.3-0.7-0.7v-9.2c0-0.3,0.2-0.6,0.5-0.7c0.3-0.1,0.6,0,0.8,0.2l3.1,3.4
						c0.3,0.3,0.2,0.7-0.1,1c-0.3,0.3-0.7,0.2-1-0.1l-1.9-2v7.4C-194.5,411.7-194.8,412.1-195.2,412.1z"/>
				</g>
				<g>
					<path class="st0" d="M-198.2,406.5c-0.2,0-0.3-0.1-0.4-0.2c-0.3-0.2-0.3-0.7-0.1-1l3-3.7c0.2-0.3,0.7-0.3,1-0.1s0.3,0.7,0.1,1
						l-3,3.7C-197.8,406.4-198,406.5-198.2,406.5z"/>
				</g>
			</g>
			<g>
				<g>
					<path class="st0" d="M-204.4,412.1c-0.4,0-0.7-0.3-0.7-0.7v-9.2c0-0.3,0.2-0.6,0.5-0.7c0.3-0.1,0.6,0,0.8,0.2l3.1,3.4
						c0.3,0.3,0.2,0.7-0.1,1c-0.3,0.3-0.7,0.2-1-0.1l-1.9-2v7.4C-203.7,411.7-204,412.1-204.4,412.1z"/>
				</g>
				<g>
					<path class="st0" d="M-207.4,406.5c-0.2,0-0.3-0.1-0.4-0.2c-0.3-0.2-0.3-0.7-0.1-1l3-3.7c0.2-0.3,0.7-0.3,1-0.1
						c0.3,0.2,0.3,0.7,0.1,1l-3,3.7C-207,406.4-207.2,406.5-207.4,406.5z"/>
				</g>
			</g>
			<g>
				<g>
					<path class="st0" d="M-174.6,402.8c-0.2,0-0.4-0.1-0.5-0.2l-7.7-7.6c-0.3-0.3-0.3-0.7,0-1s0.7-0.3,1,0l7.6,7.6
						c0.3,0.3,0.3,0.7,0,1C-174.3,402.8-174.5,402.8-174.6,402.8z"/>
				</g>
				<g>
					<path class="st0" d="M-190.4,398.6L-190.4,398.6c-3.2,0-6.3-1.3-8.6-3.6c-4.7-4.7-4.7-12.5,0-17.2c2.3-2.3,5.3-3.6,8.6-3.6
						c3.2,0,6.3,1.3,8.6,3.6c4.7,4.7,4.7,12.5,0,17.2C-184.1,397.3-187.1,398.6-190.4,398.6z M-190.4,375.6c-2.9,0-5.6,1.1-7.6,3.1
						c-4.2,4.2-4.2,11,0,15.2c2,2,4.7,3.1,7.6,3.1c2.9,0,5.6-1.1,7.6-3.1c4.2-4.2,4.2-11,0-15.2
						C-184.8,376.8-187.5,375.6-190.4,375.6z"/>
				</g>
			</g>
		</g>
	</g>
	<g>
		<g>
			<path class="st0" d="M-204.8,437.9c-22.7,0-41.1-18.4-41.1-41.1c0-22.7,18.4-41.1,41.1-41.1s41.1,18.4,41.1,41.1
				C-163.7,419.5-182.2,437.9-204.8,437.9L-204.8,437.9z M-204.8,357.6c-21.7,0-39.3,17.6-39.3,39.3c0,21.7,17.6,39.3,39.3,39.3
				s39.3-17.6,39.3-39.3C-165.5,375.2-183.2,357.6-204.8,357.6L-204.8,357.6z"/>
		</g>
	</g>
</g>
</svg>
