<?xml version="1.0" encoding="utf-8"?>
<!-- Generator: Adobe Illustrator 19.1.0, SVG Export Plug-In . SVG Version: 6.00 Build 0)  -->
<svg version="1.1" id="Слой_2" xmlns="http://www.w3.org/2000/svg" xmlns:xlink="http://www.w3.org/1999/xlink" x="0px" y="0px"
	 viewBox="-255 347 100 100" style="enable-background:new -255 347 100 100;" xml:space="preserve">
<style type="text/css">
	.st0{fill:#33414A;}
</style>
<g>
	<g>
		<g>
			<path class="st0" d="M-204.8,438.6c-22.7,0-41.1-18.4-41.1-41.1s18.4-41.1,41.1-41.1s41.1,18.4,41.1,41.1
				S-182.2,438.6-204.8,438.6L-204.8,438.6z M-204.8,358.2c-21.7,0-39.3,17.6-39.3,39.3s17.6,39.3,39.3,39.3s39.3-17.6,39.3-39.3
				C-165.6,375.8-183.2,358.2-204.8,358.2L-204.8,358.2z"/>
		</g>
	</g>
	<g>
		<g>
			<path class="st0" d="M-189.8,418.7h-30.1c-0.5,0-0.9-0.4-0.9-0.9V379c0-0.5,0.4-0.9,0.9-0.9h6.6c0.5,0,0.9,0.4,0.9,0.9
				s-0.4,0.9-0.9,0.9h-5.7v37h28.3v-37h-5.9c-0.5,0-0.9-0.4-0.9-0.9s0.4-0.9,0.9-0.9h6.8c0.5,0,0.9,0.4,0.9,0.9v38.8
				C-188.9,418.3-189.3,418.7-189.8,418.7L-189.8,418.7z"/>
		</g>
		<g>
			<path class="st0" d="M-198.7,382.2H-211c-1.6,0-3-1.3-3-3c0-1.6,1.3-3,3-3h12.3c1.6,0,3,1.3,3,3
				C-195.7,380.9-197,382.2-198.7,382.2L-198.7,382.2z M-211,378.1c-0.6,0-1.1,0.5-1.1,1.1c0,0.6,0.5,1.1,1.1,1.1h12.3
				c0.6,0,1.1-0.5,1.1-1.1c0-0.6-0.5-1.1-1.1-1.1H-211L-211,378.1z"/>
		</g>
		<g>
			<path class="st0" d="M-211.1,389.3h-2.1c-0.5,0-0.8,0.4-0.8,0.8v2.1c0,0.5,0.4,0.8,0.8,0.8h2.1c0.5,0,0.8-0.4,0.8-0.8v-2.1
				C-210.2,389.7-210.6,389.3-211.1,389.3L-211.1,389.3z"/>
			<g>
				<path class="st0" d="M-195.7,392.1h-11.7c-0.5,0-0.9-0.4-0.9-0.9s0.4-0.9,0.9-0.9h11.7c0.5,0,0.9,0.4,0.9,0.9
					S-195.2,392.1-195.7,392.1L-195.7,392.1z"/>
			</g>
			<path class="st0" d="M-211.1,401.9h-2.1c-0.5,0-0.8,0.4-0.8,0.8v2.1c0,0.5,0.4,0.8,0.8,0.8h2.1c0.5,0,0.8-0.4,0.8-0.8v-2.1
				C-210.2,402.2-210.6,401.9-211.1,401.9L-211.1,401.9z"/>
			<g>
				<path class="st0" d="M-195.7,404.7h-11.7c-0.5,0-0.9-0.4-0.9-0.9s0.4-0.9,0.9-0.9h11.7c0.5,0,0.9,0.4,0.9,0.9
					S-195.2,404.7-195.7,404.7L-195.7,404.7z"/>
			</g>
			<path class="st0" d="M-211.1,395.6h-2.1c-0.5,0-0.8,0.4-0.8,0.8v2.1c0,0.5,0.4,0.8,0.8,0.8h2.1c0.5,0,0.8-0.4,0.8-0.8v-2.1
				C-210.2,396-210.6,395.6-211.1,395.6L-211.1,395.6z"/>
			<g>
				<path class="st0" d="M-195.7,398.4h-11.7c-0.5,0-0.9-0.4-0.9-0.9s0.4-0.9,0.9-0.9h11.7c0.5,0,0.9,0.4,0.9,0.9
					S-195.2,398.4-195.7,398.4L-195.7,398.4z"/>
			</g>
		</g>
	</g>
</g>
</svg>
