<?xml version="1.0" encoding="utf-8"?>
<!-- Generator: Adobe Illustrator 19.1.0, SVG Export Plug-In . SVG Version: 6.00 Build 0)  -->
<svg version="1.1" id="Слой_3" xmlns="http://www.w3.org/2000/svg" xmlns:xlink="http://www.w3.org/1999/xlink" x="0px" y="0px"
	 viewBox="-255 347 100 100" style="enable-background:new -255 347 100 100;" xml:space="preserve">
<style type="text/css">
	.st0{fill:#33414A;}
	.st1{fill:none;}
	.st2{fill:#414852;}
</style>
<g>
	<g>
		<g>
			<path class="st0" d="M-204.8,438.3c-22.7,0-41.2-18.5-41.2-41.1c0-22.7,18.5-41.1,41.2-41.1s41.1,18.4,41.1,41.1
				C-163.7,419.8-182.2,438.3-204.8,438.3L-204.8,438.3z M-204.8,357.9c-21.7,0-39.3,17.6-39.3,39.3c0,21.7,17.6,39.3,39.3,39.3
				s39.3-17.6,39.3-39.3C-165.6,375.5-183.2,357.9-204.8,357.9L-204.8,357.9z"/>
		</g>
	</g>
	<g>
		<g>
			<g>
				<g>
					<path class="st1" d="M-198.1,377.8"/>
				</g>
				<g>
					<path class="st2" d="M-204.8,382c-0.5,0-0.9-0.4-0.9-0.9c0-2.3,1.9-4.2,4.2-4.2h12.1c0.5,0,0.9,0.4,0.9,0.9s-0.4,0.9-0.9,0.9
						h-12.1c-1.3,0-2.4,1.1-2.4,2.4C-203.9,381.6-204.3,382-204.8,382L-204.8,382z"/>
				</g>
			</g>
			<g>
				<g>
					<path class="st1" d="M-198.1,411.5"/>
				</g>
				<g>
					<path class="st2" d="M-204.8,415.7c-0.5,0-0.9-0.4-0.9-0.9c0-2.3,1.9-4.2,4.2-4.2h12.1c0.5,0,0.9,0.4,0.9,0.9s-0.4,0.9-0.9,0.9
						h-12.1c-1.3,0-2.4,1.1-2.4,2.4C-203.9,415.3-204.3,415.7-204.8,415.7L-204.8,415.7z"/>
				</g>
			</g>
			<g>
				<g>
					<g>
						<path class="st1" d="M-211.5,377.8"/>
					</g>
					<g>
						<path class="st2" d="M-204.7,382c-0.5,0-0.9-0.4-0.9-0.9c0-1.3-1.1-2.4-2.4-2.4h-12.2c-0.5,0-0.9-0.4-0.9-0.9s0.4-0.9,0.9-0.9
							h12.2c2.3,0,4.2,1.9,4.2,4.2C-203.8,381.6-204.2,382-204.7,382L-204.7,382z"/>
					</g>
				</g>
				<g>
					<g>
						<path class="st1" d="M-211.5,411.5"/>
					</g>
					<g>
						<path class="st2" d="M-204.7,415.7c-0.5,0-0.9-0.4-0.9-0.9c0-1.3-1.1-2.4-2.4-2.4h-12.2c-0.5,0-0.9-0.4-0.9-0.9
							s0.4-0.9,0.9-0.9h12.2c2.3,0,4.2,1.9,4.2,4.2C-203.8,415.3-204.2,415.7-204.7,415.7L-204.7,415.7z"/>
					</g>
				</g>
				<g>
					<path class="st2" d="M-220.4,412.4c-0.5,0-0.9-0.4-0.9-0.9v-33.6c0-0.5,0.4-0.9,0.9-0.9s0.9,0.4,0.9,0.9v33.7
						C-219.4,412-219.9,412.4-220.4,412.4L-220.4,412.4z"/>
				</g>
			</g>
			<g>
				<path class="st2" d="M-189.3,412.4c-0.5,0-0.9-0.4-0.9-0.9v-33.6c0-0.5,0.4-0.9,0.9-0.9s0.9,0.4,0.9,0.9v33.7
					C-188.4,412-188.8,412.4-189.3,412.4L-189.3,412.4z"/>
			</g>
			<g>
				<path class="st2" d="M-204.8,415.1c-0.5,0-0.9-0.4-0.9-0.9v-33.7c0-0.5,0.4-0.9,0.9-0.9s0.9,0.4,0.9,0.9v33.7
					C-203.9,414.7-204.3,415.1-204.8,415.1L-204.8,415.1z"/>
			</g>
		</g>
		<g>
			<g>
				<path class="st2" d="M-184.8,417.4h-35c-0.5,0-0.9-0.4-0.9-0.9s0.4-0.9,0.9-0.9h34.5v-36c0-0.5,0.4-0.9,0.9-0.9s0.9,0.4,0.9,0.9
					v36.5C-183.4,416.8-184,417.4-184.8,417.4L-184.8,417.4z"/>
			</g>
			<g>
				<path class="st2" d="M-189.9,417.4h-35c-0.7,0-1.3-0.6-1.3-1.3v-36.5c0-0.5,0.4-0.9,0.9-0.9s0.9,0.4,0.9,0.9v36h34.5
					c0.5,0,0.9,0.4,0.9,0.9S-189.4,417.4-189.9,417.4L-189.9,417.4z"/>
			</g>
		</g>
	</g>
</g>
</svg>
