<?xml version="1.0" encoding="utf-8"?>
<!-- Generator: Adobe Illustrator 19.1.0, SVG Export Plug-In . SVG Version: 6.00 Build 0)  -->
<svg version="1.1" id="Слой_4" xmlns="http://www.w3.org/2000/svg" xmlns:xlink="http://www.w3.org/1999/xlink" x="0px" y="0px"
	 viewBox="-255 347 100 100" style="enable-background:new -255 347 100 100;" xml:space="preserve">
<style type="text/css">
	.st0{fill:#33414A;}
</style>
<g>
	<g>
		<g>
			<path class="st0" d="M-204.8,437.9c-22.7,0-41.1-18.4-41.1-41.1c0-22.7,18.4-41.1,41.1-41.1s41.1,18.4,41.1,41.1
				C-163.7,419.5-182.2,437.9-204.8,437.9L-204.8,437.9z M-204.8,357.6c-21.7,0-39.3,17.6-39.3,39.3c0,21.7,17.6,39.3,39.3,39.3
				s39.3-17.6,39.3-39.3C-165.5,375.2-183.2,357.6-204.8,357.6L-204.8,357.6z"/>
		</g>
	</g>
	<g>
		<g>
			<path class="st0" d="M-191.7,418c-0.2,0-0.4-0.1-0.5-0.2l-12.6-9.2l-12.6,9.2c-0.3,0.2-0.8,0.2-1.1,0c-0.3-0.2-0.5-0.6-0.3-1
				l4.8-14.8l-12.6-9.2c-0.3-0.2-0.5-0.6-0.3-1c0.1-0.4,0.5-0.6,0.9-0.6h15.6l4.8-14.8c0.1-0.4,0.5-0.6,0.9-0.6l0,0
				c0.4,0,0.7,0.3,0.9,0.6l4.8,14.8h15.6c0.4,0,0.7,0.3,0.9,0.6c0.1,0.4,0,0.8-0.3,1l-12.9,9.2l4.8,14.8c0.1,0.4,0,0.8-0.3,1
				C-191.3,417.9-191.5,418-191.7,418L-191.7,418z M-223.3,393l10.9,7.9c0.3,0.2,0.5,0.6,0.3,1l-4.2,12.8l10.9-7.9
				c0.3-0.2,0.8-0.2,1.1,0l10.9,7.9l-4.1-12.8c-0.1-0.4,0-0.8,0.3-1l10.8-7.9h-13.4c-0.4,0-0.7-0.3-0.9-0.6l-4.1-12.8l-4.2,12.7
				c-0.1,0.4-0.5,0.6-0.9,0.6h-13.4V393z"/>
		</g>
	</g>
</g>
</svg>
