<?xml version="1.0" encoding="utf-8"?>
<!-- Generator: Adobe Illustrator 19.1.0, SVG Export Plug-In . SVG Version: 6.00 Build 0)  -->
<svg version="1.1" id="Слой_6" xmlns="http://www.w3.org/2000/svg" xmlns:xlink="http://www.w3.org/1999/xlink" x="0px" y="0px"
	 viewBox="-255 347 100 100" style="enable-background:new -255 347 100 100;" xml:space="preserve">
<style type="text/css">
	.st0{fill:#33414A;}
</style>
<g>
	<g>
		<g>
			<path class="st0" d="M-204.8,437.3c-22.7,0-41.1-18.4-41.1-41.1c0-22.7,18.4-41.1,41.1-41.1s41.1,18.4,41.1,41.1
				C-163.7,418.8-182.2,437.3-204.8,437.3L-204.8,437.3z M-204.8,356.9c-21.7,0-39.3,17.6-39.3,39.3c0,21.7,17.6,39.3,39.3,39.3
				s39.3-17.6,39.3-39.3C-165.6,374.5-183.2,356.9-204.8,356.9L-204.8,356.9z"/>
		</g>
	</g>
	<g>
		<g>
			<path class="st0" d="M-198.3,418.5c-0.5,0-0.9-0.4-0.9-0.9v-11c0-0.5,0.4-0.9,0.9-0.9h11c0.5,0,0.9,0.4,0.9,0.9s-0.4,0.9-0.9,0.9
				h-10v10C-197.4,418.1-197.8,418.5-198.3,418.5L-198.3,418.5z"/>
		</g>
		<g>
			<path class="st0" d="M-198.3,418.5h-18.9c-0.5,0-0.9-0.4-0.9-0.9v-37.5c0-0.5,0.4-0.9,0.9-0.9h29.8c0.5,0,0.9,0.4,0.9,0.9v26.5
				c0,0.2-0.1,0.5-0.3,0.6l-11,11C-197.8,418.4-198.1,418.5-198.3,418.5L-198.3,418.5z M-216.3,416.7h17.6l10.4-10.4V381h-28
				L-216.3,416.7L-216.3,416.7z"/>
		</g>
		<g>
			<path class="st0" d="M-200.3,388H-211c-0.5,0-0.9-0.4-0.9-0.9s0.4-0.9,0.9-0.9h10.7c0.5,0,0.9,0.4,0.9,0.9S-199.8,388-200.3,388
				L-200.3,388z"/>
		</g>
		<g>
			<path class="st0" d="M-193.2,392.4H-211c-0.5,0-0.9-0.4-0.9-0.9s0.4-0.9,0.9-0.9h17.8c0.5,0,0.9,0.4,0.9,0.9
				S-192.7,392.4-193.2,392.4L-193.2,392.4z"/>
		</g>
		<g>
			<path class="st0" d="M-193.2,396.8H-211c-0.5,0-0.9-0.4-0.9-0.9s0.4-0.9,0.9-0.9h17.8c0.5,0,0.9,0.4,0.9,0.9
				S-192.7,396.8-193.2,396.8L-193.2,396.8z"/>
		</g>
		<g>
			<path class="st0" d="M-203.6,401.2h-7.4c-0.5,0-0.9-0.4-0.9-0.9s0.4-0.9,0.9-0.9h7.5c0.5,0,0.9,0.4,0.9,0.9
				C-202.7,400.8-203.1,401.2-203.6,401.2L-203.6,401.2z"/>
		</g>
		<g>
			<path class="st0" d="M-222.3,414.2c-0.5,0-0.9-0.4-0.9-0.9v-36.8c0-1.5,1.2-2.7,2.7-2.7h28c0.5,0,0.9,0.4,0.9,0.9
				s-0.4,0.9-0.9,0.9h-28c-0.5,0-0.9,0.4-0.9,0.9v36.8C-221.4,413.8-221.8,414.2-222.3,414.2L-222.3,414.2z"/>
		</g>
	</g>
</g>
</svg>
