<?xml version="1.0" encoding="utf-8"?>
<!-- Generator: Adobe Illustrator 19.1.0, SVG Export Plug-In . SVG Version: 6.00 Build 0)  -->
<svg version="1.1" id="Слой_1" xmlns="http://www.w3.org/2000/svg" xmlns:xlink="http://www.w3.org/1999/xlink" x="0px" y="0px"
	 viewBox="-255 347 100 100" style="enable-background:new -255 347 100 100;" xml:space="preserve">
<style type="text/css">
	.st0{fill:#33414A;}
</style>
<g id="Слой_5">
	<g>
		<g>
			<g>
				<path class="st0" d="M-205,437.1c-22.7,0-41.1-18.4-41.1-41.1s18.4-41.1,41.1-41.1s41.1,18.4,41.1,41.1S-182.4,437.1-205,437.1
					L-205,437.1z M-205,356.7c-21.7,0-39.3,17.6-39.3,39.3s17.6,39.3,39.3,39.3s39.3-17.6,39.3-39.3S-183.4,356.7-205,356.7
					L-205,356.7z"/>
			</g>
		</g>
		<g>
			<g>
				<path class="st0" d="M-187.1,378.2h-38.6c-0.5,0-0.9-0.4-0.9-0.9s0.4-0.9,0.9-0.9h38.6c0.5,0,0.9,0.4,0.9,0.9
					S-186.6,378.2-187.1,378.2L-187.1,378.2z"/>
			</g>
			<g>
				<path class="st0" d="M-219,400.9h-6.6c-0.5,0-0.9-0.4-0.9-0.9s0.4-0.9,0.9-0.9h6.6c0.5,0,0.9,0.4,0.9,0.9
					C-218.1,400.4-218.5,400.9-219,400.9L-219,400.9z"/>
			</g>
			<g>
				<path class="st0" d="M-215.1,412.2h-10.6c-0.5,0-0.9-0.4-0.9-0.9s0.4-0.9,0.9-0.9h10.6c0.5,0,0.9,0.4,0.9,0.9
					S-214.6,412.2-215.1,412.2L-215.1,412.2z"/>
			</g>
			<g>
				<path class="st0" d="M-215.1,389.5h-10.6c-0.5,0-0.9-0.4-0.9-0.9s0.4-0.9,0.9-0.9h10.6c0.5,0,0.9,0.4,0.9,0.9
					S-214.6,389.5-215.1,389.5L-215.1,389.5z"/>
			</g>
			<g>
				<path class="st0" d="M-197.1,415.7h-3.4c-1,0-1.9-0.8-1.9-1.9v-2.2c0-0.1-0.1-0.3-0.3-0.4l-1.3-0.5c-0.1,0-0.3,0.1-0.3,0.1
					l-1.6,1.6c-0.7,0.7-1.9,0.7-2.6,0l-2.4-2.4c-0.3-0.3-0.5-0.8-0.5-1.3s0.2-1,0.5-1.3l1.6-1.6c0.1-0.1,0.1-0.3,0.1-0.4l-0.4-1.1
					c-0.1-0.2-0.3-0.3-0.4-0.3h-2.2c-1,0-1.9-0.8-1.9-1.9v-3.4c0-1,0.8-1.9,1.9-1.9h2.2c0.1,0,0.3-0.1,0.4-0.3l0.4-1
					c0.1-0.2,0-0.4,0-0.5l-1.6-1.6c-0.3-0.3-0.5-0.8-0.5-1.3s0.2-1,0.5-1.3l2.4-2.4c0.7-0.7,1.9-0.7,2.6,0l1.6,1.6
					c0,0,0.2,0.1,0.3,0.1c0,0,0.2,0,0.2-0.1l1-0.4c0.2-0.1,0.3-0.3,0.3-0.4V387c0-1,0.8-1.9,1.9-1.9h3.4c1,0,1.9,0.8,1.9,1.9v2.2
					c0,0.1,0.1,0.3,0.3,0.4l1.3,0.5c0.1,0,0.3-0.1,0.3-0.1l1.6-1.6c0.7-0.7,1.9-0.7,2.6,0l2.4,2.4c0.3,0.3,0.5,0.8,0.5,1.3
					s-0.2,1-0.5,1.3l-1.6,1.6c-0.1,0.1-0.1,0.3-0.1,0.4l0.4,1.1c0.1,0.2,0.3,0.3,0.4,0.3h2.2c1,0,1.8,0.8,1.8,1.9v3.4
					c0,1-0.8,1.9-1.8,1.9h-2.2c-0.1,0-0.3,0.1-0.4,0.3l-0.4,1.1c-0.1,0.2,0,0.4,0,0.5l1.6,1.6c0.7,0.7,0.7,1.9,0,2.6l-2.4,2.3
					c-0.7,0.7-1.9,0.7-2.6,0l-1.6-1.6c0,0-0.2-0.1-0.3-0.1c0,0-0.2,0-0.2,0.1l-1,0.4c-0.2,0.1-0.3,0.3-0.3,0.4v2.2
					C-195.2,414.8-196.1,415.7-197.1,415.7L-197.1,415.7z M-203.9,408.9c0.3,0,0.7,0.1,1,0.2l0.9,0.4c0.8,0.3,1.5,1.2,1.5,2.1v2.2
					h3.5l0,0v-2.2c0-0.9,0.6-1.8,1.5-2.1l0.9-0.4c0.6-0.3,1.9-0.2,2.5,0.4l1.6,1.6l2.5-2.4l-1.6-1.6c-0.6-0.6-0.8-1.7-0.4-2.6
					l0.4-0.9c0.3-0.8,1.2-1.5,2.1-1.5h2.2v-3.5h-2.2c-0.9,0-1.8-0.7-2.1-1.5l-0.4-0.9c-0.4-0.8-0.2-1.9,0.4-2.5l1.6-1.6l-2.4-2.5
					l-1.6,1.6c-0.6,0.6-1.8,0.8-2.6,0.4l-0.9-0.4c-0.8-0.3-1.5-1.2-1.5-2.1v-2.2h-3.5v2.2c0,0.9-0.7,1.8-1.5,2.1l-0.9,0.4
					c-0.6,0.3-1.9,0.2-2.5-0.4l-1.6-1.6l-2.5,2.4l1.6,1.6c0.6,0.6,0.8,1.7,0.4,2.6l-0.4,0.9c-0.3,0.8-1.2,1.5-2.1,1.5h-2.2v3.5h2.3
					c0.9,0,1.8,0.7,2.1,1.5l0.4,1c0.4,0.7,0.2,1.8-0.4,2.5l-1.6,1.6l2.4,2.5l1.6-1.6C-205.1,409.1-204.5,408.9-203.9,408.9
					L-203.9,408.9z M-198.8,405.8c-3,0-5.4-2.4-5.4-5.4s2.4-5.4,5.4-5.4s5.4,2.4,5.4,5.4S-195.8,405.8-198.8,405.8L-198.8,405.8z
					 M-198.8,396.7c-2,0-3.6,1.6-3.6,3.6s1.6,3.6,3.6,3.6s3.6-1.6,3.6-3.6C-195.2,398.4-196.8,396.7-198.8,396.7L-198.8,396.7z"/>
			</g>
		</g>
	</g>
</g>
</svg>
